# xmcd
#
# Track frame offsets:
#	150
#	8746
#	22500
#	42027
#	61333
#	69854
#	91751
#	104143
#	116389
#	131021
#	146863
#	165489
#	187657
#	209467
#	228673
#	248215
#	257288
#	276324
#	295065
#	311920
#
# Disc length: 4327 seconds
#
# Revision: 1
# Processed by: cddbd v1.5.2PL0 Copyright (c) Steve Scherf et al.
# Submitted via: audiograbber 1.83.01
#
DISCID=1010e514
DTITLE=Manuellsen - M.Bilal 2010
DYEAR=2010
DGENRE=Rap
TTITLE0=Manuellsen - M.Bilal 2010 (Die Inspiration)
TTITLE1=Manuellsen - M.Bilal 2010
TTITLE2=Manuellsen - Gerüchte
TTITLE3=Manuellsen - Generation Kanak feat. Haftbefehl
TTITLE4=Manuellsen - Nachtschicht II Interlude
TTITLE5=Manuellsen - Nachtschicht II
TTITLE6=Manuellsen - Du and Ich
TTITLE7=Manuellsen - Dein Ex feat. Farid Bang
TTITLE8=Manuellsen - Eine Chance feat. Kitty Kat
TTITLE9=Manuellsen - Warum machen sie das feat. Nazar and RAF Camora
TTITLE10=Manuellsen - Kopfghetto feat. Chakuza and KC Rebell
TTITLE11=Manuellsen - Hochs and Tiefs
TTITLE12=Manuellsen - Status Kinder
TTITLE13=Manuellsen - Wir machens gross
TTITLE14=Manuellsen - Assume tes Coleur feat. Azad and Seyfu
TTITLE15=Manuellsen - Welt voll Sonnenschein feat. Juvel and Kaas
TTITLE16=Manuellsen - Verrückt sein feat. Josof and Kee-Rush
TTITLE17=Manuellsen - 00.00 Uhr
TTITLE18=Manuellsen introducing Moe Phoenix Ð - Imani
TTITLE19=Psyco Vaysol Ð - Lieben and Hassen
EXTD=
EXTT0=
EXTT1=
EXTT2=
EXTT3=
EXTT4=
EXTT5=
EXTT6=
EXTT7=
EXTT8=
EXTT9=
EXTT10=
EXTT11=
EXTT12=
EXTT13=
EXTT14=
EXTT15=
EXTT16=
EXTT17=
EXTT18=Hidden Track
EXTT19=Hidden Track
PLAYORDER=
